# xmcd CD database file
#
# Track frame offsets:
#	150
#	12105
#	25840
#	36612
#	51105
#	64060
#	76580
#	88087
#	101082
#	112317
#	123630
#	138860
#	152507
#	168140
#	181120
#	195517
#	207450
#	222005
#	233487
#	245235
#	258937
#	273207
#	288115
#	299365
#	315302
#	328037
#	340030
#
# Disc length: 4703 seconds
#
# Revision: 0
# Processed by: cddbd v1.5.2PL0 Copyright (c) Steve Scherf et al.
# Submitted via: CDex 1.51
#
DISCID=7a125d1b
DTITLE=Uncle Dave Macon - Keep my skillet good and greasy [CD7]
DYEAR=2004
DGENRE=Country
TTITLE0=OVER THE MOUNTAIN
TTITLE1=WHEN THE HARVEST DAYS ARE OVER
TTITLE2=ONE MORE RIVER TO CROSS
TTITLE3=JUST ONE WAY
TTITLE4=ILL TICKLE NANCY
TTITLE5=ILL KEEP MY SKILLET GOOD AND GREASY
TTITLE6=ALL IN DOWN AND OUT BLUES
TTITLE7=HONEST CONFESSION IS GOOD
TTITLE8=FAME APART FROM GODS APPROVAL
TTITLE9=THE BUM HOTEL
TTITLE10=FROM JERUSALEM TO JERICHO
TTITLE11=TWO-IN-ONE CHEWING GUM
TTITLE12=TRAVELIN DOWN THE ROAD
TTITLE13=COUNTRY HAM AND RED GRAVY
TTITLE14=SUMMERTIME ON THE BENO LINE
TTITLE15=HE WON THE HEART OF SARAH JANE
TTITLE16=PEEK-A-BOO
TTITLE17=WORKING FOR  MY LORD
TTITLE18=SHE'S GOT THE MONEY TOO
TTITLE19=WAIT TILL THE CLOUNDS ROLL BY
TTITLE20=THINGS I DON'T LIKE TO SEE
TTITLE21=THEY ARE AFTER ME
TTITLE22=MY DAUGHTER WISHED TO MARRY
TTITLE23=BEAUTIFUL LOVE
TTITLE24=GIVE ME BACK MY FIVE DOLLARS
TTITLE25=RAINROADIN AND GAMBLIN
TTITLE26=CUMBERLAND MOUNTAIN DEER RACE
EXTD=YEAR: 2004
EXTT0=
EXTT1=
EXTT2=
EXTT3=
EXTT4=
EXTT5=
EXTT6=
EXTT7=
EXTT8=
EXTT9=
EXTT10=
EXTT11=
EXTT12=
EXTT13=
EXTT14=
EXTT15=
EXTT16=
EXTT17=
EXTT18=
EXTT19=
EXTT20=
EXTT21=
EXTT22=
EXTT23=
EXTT24=
EXTT25=
EXTT26=
PLAYORDER=
